<svg width="923" height="923" viewBox="0 0 923 923" fill="none" xmlns="http://www.w3.org/2000/svg">
<rect width="923" height="923" fill="#323437"/>
<g clip-path="url(#clip0_14_10)">
<path d="M209.431 365.797C224.292 365.797 232.142 357.39 232.142 342.816V276.678C232.142 247.533 247.564 232.68 275.603 232.68H343.456C358.317 232.68 366.449 224.553 366.449 209.98C366.449 195.407 358.317 187.56 343.456 187.56H275.042C216.441 187.56 187 216.426 187 274.156V342.816C187 357.39 195.131 365.797 209.431 365.797ZM713.289 365.797C728.149 365.797 736 357.39 736 342.816V274.156C736 216.426 706.56 187.56 647.958 187.56H579.264C564.683 187.56 556.551 195.407 556.551 209.98C556.551 224.553 564.683 232.68 579.264 232.68H647.118C674.876 232.68 690.858 247.533 690.858 276.678V342.816C690.858 357.39 698.989 365.797 713.289 365.797ZM275.042 736H343.456C358.317 736 366.449 727.873 366.449 713.581C366.449 699.008 358.317 690.881 343.456 690.881H275.603C247.564 690.881 232.142 676.028 232.142 646.883V580.745C232.142 565.892 224.011 557.764 209.431 557.764C194.851 557.764 187 565.892 187 580.745V649.125C187 707.135 216.441 736 275.042 736ZM579.264 736H647.958C706.56 736 736 706.855 736 649.125V580.745C736 565.892 727.869 557.764 713.289 557.764C698.709 557.764 690.858 565.892 690.858 580.745V646.883C690.858 676.028 674.876 690.881 647.118 690.881H579.264C564.683 690.881 556.551 699.008 556.551 713.581C556.551 727.873 564.683 736 579.264 736Z" fill="#EBDF47" fill-opacity="0.85"/>
<g clip-path="url(#clip1_14_10)">
<path d="M411.767 437.062H511.233C525.065 437.062 533.147 429.893 533.147 417.276V314.618C533.147 302.001 525.065 294.832 511.233 294.832H411.767C397.935 294.832 389.853 302.001 389.853 314.618V417.276C389.853 429.893 397.935 437.062 411.767 437.062Z" fill="#E8EB47" fill-opacity="0.62"/>
<path d="M388.144 556.352H535.011C565.939 556.352 586.299 537.713 586.299 509.324V360.069C586.299 331.68 565.939 313.184 535.011 313.184H388.144C357.216 313.184 336.701 331.68 336.701 360.069V509.324C336.701 537.713 357.216 556.352 388.144 556.352Z" fill="#323437"/>
<path d="M386.434 536.852H536.721C554.905 536.852 565.162 527.39 565.162 510.901V358.491C565.162 342.003 554.905 332.684 536.721 332.684H386.434C368.251 332.684 357.838 342.003 357.838 358.491V510.901C357.838 527.39 368.251 536.852 386.434 536.852Z" fill="#EBDF47" fill-opacity="0.71"/>
<path d="M374.001 650.694H548.999C595.313 650.694 622.822 625.603 622.822 583.163V420.574C622.822 378.134 595.313 353.043 548.999 353.043H374.001C327.687 353.043 300.178 377.99 300.178 420.574V583.163C300.178 625.603 327.687 650.694 374.001 650.694Z" fill="#323437"/>
<path d="M374.001 627.61H548.999C581.481 627.61 597.799 612.699 597.799 583.163V420.574C597.799 391.038 581.481 376.127 548.999 376.127H374.001C341.519 376.127 325.2 390.895 325.2 420.574V583.163C325.2 612.699 341.519 627.61 374.001 627.61ZM374.467 604.527C358.926 604.527 350.222 596.784 350.222 581.873V421.72C350.222 406.953 358.926 399.21 374.467 399.21H548.688C563.919 399.21 572.778 406.953 572.778 421.72V581.873C572.778 596.784 563.919 604.527 548.688 604.527H374.467Z" fill="#EBDF47" fill-opacity="0.85"/>
<path d="M482.015 452.26C492.583 452.26 501.131 444.375 501.131 434.625C501.131 424.731 492.583 416.846 482.015 416.846C471.291 416.846 462.743 424.731 462.743 434.625C462.743 444.375 471.291 452.26 482.015 452.26ZM452.019 522.945L485.59 540.437L463.986 557.499C459.324 561.37 459.324 566.101 462.122 569.112C465.074 572.123 470.359 572.696 475.176 568.969L505.483 545.025C509.679 541.727 508.902 534.845 503.928 531.691L470.981 511.762L477.352 490.828C478.44 487.674 482.17 487.244 484.19 489.968L493.826 503.015C496.002 506.026 500.199 507.173 503.928 505.596L532.059 494.126C536.876 492.119 538.742 488.248 536.566 483.946C534.39 479.931 530.194 478.785 525.376 480.792L502.996 489.825L487.921 470.325C479.839 460.146 470.048 456.131 454.04 457.135L422.957 459.285C418.139 459.572 414.72 462.727 413.943 467.171L409.902 496.133C409.125 501.295 411.767 504.593 416.74 505.166C421.558 505.596 424.822 503.015 425.443 497.997L429.174 474.34L441.607 473.48C444.404 473.336 447.046 475.057 446.114 478.211L439.12 501.582C434.769 515.202 444.404 518.93 452.019 522.945ZM392.962 593.2C396.225 595.637 401.198 596.067 405.705 591.909L434.302 565.958C436.789 563.807 437.255 563.234 438.809 559.793L450.621 531.118L447.824 529.683C441.141 526.386 436.478 522.945 433.214 519.36L422.801 553.628L393.272 580.869C388.61 585.027 389.387 590.189 392.962 593.2Z" fill="#EBDF47" fill-opacity="0.85"/>
</g>
<path d="M634.284 330.585C654.357 330.585 670.965 314.259 670.965 294.266C670.965 274.273 654.357 257.948 634.284 257.948C614.091 257.948 597.483 274.273 597.483 294.266C597.483 314.259 614.091 330.585 634.284 330.585Z" fill="#EBDF47" fill-opacity="0.85"/>
</g>
<defs>
<clipPath id="clip0_14_10">
<rect width="549" height="549" fill="white" transform="translate(187 187)"/>
</clipPath>
<clipPath id="clip1_14_10">
<rect width="322.643" height="379.232" fill="white" transform="translate(300.178 271.462)"/>
</clipPath>
</defs>
</svg>
